<svg width="400" height="300" viewBox="0 0 400 300" fill="none" xmlns="http://www.w3.org/2000/svg">
  <rect width="400" height="300" fill="#E2E8F0"/>
  <path d="M188 136C188 129.373 193.373 124 200 124C206.627 124 212 129.373 212 136C212 142.627 206.627 148 200 148C193.373 148 188 142.627 188 136Z" fill="#CBD5E1"/>
  <path d="M192 152H208V176H192V152Z" fill="#CBD5E1"/>
  <path d="M220 152H180C177.791 152 176 153.791 176 156V160C176 162.209 177.791 164 180 164H220C222.209 164 224 162.209 224 160V156C224 153.791 222.209 152 220 152Z" fill="#CBD5E1"/>
</svg>
